<mxfile host="app.diagrams.net" modified="2023-04-05T17:42:36.655Z" agent="Mozilla/5.0 (Macintosh; Intel Mac OS X 10_15_7) AppleWebKit/537.36 (KHTML, like Gecko) Chrome/111.0.0.0 Safari/537.36" etag="xGhr73Ynl_pS9MJi1r-i" version="21.1.2" type="github">
  <diagram name="第 1 页" id="Uyn3VKAEnPJAE6BOzNtD">
    <mxGraphModel dx="2069" dy="739" grid="1" gridSize="10" guides="1" tooltips="1" connect="1" arrows="1" fold="1" page="1" pageScale="1" pageWidth="827" pageHeight="1169" math="0" shadow="0">
      <root>
        <mxCell id="0" />
        <mxCell id="1" parent="0" />
        <mxCell id="6kn5Lzyc4PaZcMPqqwd1-26" value="" style="rounded=0;whiteSpace=wrap;html=1;dashed=1;dashPattern=8 8;strokeWidth=2;" vertex="1" parent="1">
          <mxGeometry x="785" y="80" width="240" height="560" as="geometry" />
        </mxCell>
        <mxCell id="6kn5Lzyc4PaZcMPqqwd1-39" style="edgeStyle=orthogonalEdgeStyle;rounded=0;orthogonalLoop=1;jettySize=auto;html=1;strokeWidth=2;" edge="1" parent="1" source="6kn5Lzyc4PaZcMPqqwd1-18">
          <mxGeometry relative="1" as="geometry">
            <mxPoint x="780" y="360" as="targetPoint" />
            <Array as="points">
              <mxPoint x="700" y="360" />
              <mxPoint x="700" y="360" />
            </Array>
          </mxGeometry>
        </mxCell>
        <mxCell id="6kn5Lzyc4PaZcMPqqwd1-18" value="" style="rounded=0;whiteSpace=wrap;html=1;dashed=1;dashPattern=8 8;strokeWidth=2;" vertex="1" parent="1">
          <mxGeometry x="390" y="80" width="240" height="560" as="geometry" />
        </mxCell>
        <mxCell id="6kn5Lzyc4PaZcMPqqwd1-32" style="edgeStyle=orthogonalEdgeStyle;rounded=0;orthogonalLoop=1;jettySize=auto;html=1;entryX=0;entryY=0.5;entryDx=0;entryDy=0;strokeWidth=2;" edge="1" parent="1" source="6kn5Lzyc4PaZcMPqqwd1-17" target="6kn5Lzyc4PaZcMPqqwd1-18">
          <mxGeometry relative="1" as="geometry" />
        </mxCell>
        <mxCell id="6kn5Lzyc4PaZcMPqqwd1-37" style="edgeStyle=orthogonalEdgeStyle;rounded=0;orthogonalLoop=1;jettySize=auto;html=1;entryX=0.5;entryY=1;entryDx=0;entryDy=0;strokeWidth=2;" edge="1" parent="1" source="6kn5Lzyc4PaZcMPqqwd1-17" target="6kn5Lzyc4PaZcMPqqwd1-26">
          <mxGeometry relative="1" as="geometry">
            <Array as="points">
              <mxPoint x="175" y="690" />
              <mxPoint x="905" y="690" />
            </Array>
          </mxGeometry>
        </mxCell>
        <mxCell id="6kn5Lzyc4PaZcMPqqwd1-17" value="" style="rounded=0;whiteSpace=wrap;html=1;dashed=1;dashPattern=8 8;strokeWidth=2;" vertex="1" parent="1">
          <mxGeometry x="55" y="80" width="240" height="560" as="geometry" />
        </mxCell>
        <mxCell id="6kn5Lzyc4PaZcMPqqwd1-8" value="&lt;font style=&quot;font-size: 15px;&quot;&gt;白名单(concurrent-map)&lt;/font&gt;" style="rounded=1;whiteSpace=wrap;html=1;fillColor=#008a00;fontColor=#ffffff;strokeColor=#005700;strokeWidth=2;" vertex="1" parent="1">
          <mxGeometry x="90" y="300" width="170" height="90" as="geometry" />
        </mxCell>
        <mxCell id="6kn5Lzyc4PaZcMPqqwd1-9" value="&lt;font style=&quot;font-size: 15px;&quot;&gt;HotKey&lt;br&gt;(HeavyKeeper+小根堆)&lt;br&gt;最热TopK&lt;br&gt;&lt;/font&gt;" style="rounded=0;whiteSpace=wrap;html=1;fillColor=#d80073;fontColor=#ffffff;strokeColor=#A50040;strokeWidth=2;" vertex="1" parent="1">
          <mxGeometry x="410" y="120" width="200" height="80" as="geometry" />
        </mxCell>
        <mxCell id="6kn5Lzyc4PaZcMPqqwd1-10" value="&lt;span style=&quot;font-size: 15px;&quot;&gt;LRU&lt;/span&gt;" style="rounded=0;whiteSpace=wrap;html=1;fillColor=#6a00ff;fontColor=#ffffff;strokeColor=#3700CC;strokeWidth=2;" vertex="1" parent="1">
          <mxGeometry x="410" y="310" width="200" height="90" as="geometry" />
        </mxCell>
        <mxCell id="6kn5Lzyc4PaZcMPqqwd1-11" value="&lt;span style=&quot;font-size: 15px;&quot;&gt;W-TinyLFU&lt;/span&gt;" style="rounded=0;whiteSpace=wrap;html=1;fillColor=#1ba1e2;fontColor=#ffffff;strokeColor=#006EAF;strokeWidth=2;" vertex="1" parent="1">
          <mxGeometry x="410" y="495" width="200" height="90" as="geometry" />
        </mxCell>
        <mxCell id="6kn5Lzyc4PaZcMPqqwd1-15" value="" style="endArrow=none;html=1;rounded=0;dashed=1;strokeWidth=2;" edge="1" parent="1">
          <mxGeometry width="50" height="50" relative="1" as="geometry">
            <mxPoint x="390" y="250" as="sourcePoint" />
            <mxPoint x="630" y="250" as="targetPoint" />
          </mxGeometry>
        </mxCell>
        <mxCell id="6kn5Lzyc4PaZcMPqqwd1-16" value="" style="endArrow=none;html=1;rounded=0;dashed=1;strokeWidth=2;" edge="1" parent="1">
          <mxGeometry width="50" height="50" relative="1" as="geometry">
            <mxPoint x="390" y="450" as="sourcePoint" />
            <mxPoint x="630" y="450" as="targetPoint" />
          </mxGeometry>
        </mxCell>
        <mxCell id="6kn5Lzyc4PaZcMPqqwd1-36" style="edgeStyle=orthogonalEdgeStyle;rounded=0;orthogonalLoop=1;jettySize=auto;html=1;entryX=0;entryY=0.5;entryDx=0;entryDy=0;entryPerimeter=0;strokeWidth=2;" edge="1" parent="1" source="6kn5Lzyc4PaZcMPqqwd1-19" target="6kn5Lzyc4PaZcMPqqwd1-23">
          <mxGeometry relative="1" as="geometry" />
        </mxCell>
        <mxCell id="6kn5Lzyc4PaZcMPqqwd1-19" value="&lt;font color=&quot;#ffffff&quot; style=&quot;font-size: 15px;&quot;&gt;同步回源&lt;/font&gt;" style="ellipse;whiteSpace=wrap;html=1;fillColor=#fa6800;fontColor=#000000;strokeColor=#C73500;strokeWidth=2;" vertex="1" parent="1">
          <mxGeometry x="800" y="180" width="210" height="90" as="geometry" />
        </mxCell>
        <mxCell id="6kn5Lzyc4PaZcMPqqwd1-34" style="edgeStyle=orthogonalEdgeStyle;rounded=0;orthogonalLoop=1;jettySize=auto;html=1;entryX=0;entryY=0.5;entryDx=0;entryDy=0;entryPerimeter=0;strokeWidth=2;" edge="1" parent="1" source="6kn5Lzyc4PaZcMPqqwd1-20" target="6kn5Lzyc4PaZcMPqqwd1-23">
          <mxGeometry relative="1" as="geometry" />
        </mxCell>
        <mxCell id="6kn5Lzyc4PaZcMPqqwd1-20" value="&lt;font color=&quot;#ffffff&quot; style=&quot;font-size: 15px;&quot;&gt;异步回源&lt;/font&gt;" style="ellipse;whiteSpace=wrap;html=1;fillColor=#e3c800;fontColor=#000000;strokeColor=#B09500;strokeWidth=2;" vertex="1" parent="1">
          <mxGeometry x="800" y="490" width="210" height="90" as="geometry" />
        </mxCell>
        <mxCell id="6kn5Lzyc4PaZcMPqqwd1-21" value="" style="endArrow=none;html=1;rounded=0;dashed=1;strokeWidth=2;" edge="1" parent="1">
          <mxGeometry width="50" height="50" relative="1" as="geometry">
            <mxPoint x="785" y="364.5" as="sourcePoint" />
            <mxPoint x="1030" y="364.5" as="targetPoint" />
          </mxGeometry>
        </mxCell>
        <mxCell id="6kn5Lzyc4PaZcMPqqwd1-23" value="&lt;font style=&quot;font-size: 15px;&quot;&gt;&lt;b&gt;redis/mysql/泰山&lt;/b&gt;&lt;/font&gt;" style="shape=cylinder3;whiteSpace=wrap;html=1;boundedLbl=1;backgroundOutline=1;size=15;fillColor=#a0522d;fontColor=#ffffff;strokeColor=#6D1F00;strokeWidth=2;" vertex="1" parent="1">
          <mxGeometry x="1150" y="312.5" width="120" height="105" as="geometry" />
        </mxCell>
        <mxCell id="6kn5Lzyc4PaZcMPqqwd1-27" value="&lt;font style=&quot;font-size: 15px;&quot;&gt;常驻热key&lt;/font&gt;" style="text;strokeColor=none;align=center;fillColor=none;html=1;verticalAlign=middle;whiteSpace=wrap;rounded=0;" vertex="1" parent="1">
          <mxGeometry x="120" y="80" width="90" height="30" as="geometry" />
        </mxCell>
        <mxCell id="6kn5Lzyc4PaZcMPqqwd1-28" value="&lt;span style=&quot;font-size: 15px;&quot;&gt;参与淘汰的热key&lt;/span&gt;" style="text;strokeColor=none;align=center;fillColor=none;html=1;verticalAlign=middle;whiteSpace=wrap;rounded=0;" vertex="1" parent="1">
          <mxGeometry x="445" y="80" width="130" height="30" as="geometry" />
        </mxCell>
        <mxCell id="6kn5Lzyc4PaZcMPqqwd1-40" style="edgeStyle=orthogonalEdgeStyle;rounded=0;orthogonalLoop=1;jettySize=auto;html=1;exitX=0.5;exitY=0;exitDx=0;exitDy=0;entryX=0.5;entryY=0;entryDx=0;entryDy=0;strokeWidth=2;" edge="1" parent="1" source="6kn5Lzyc4PaZcMPqqwd1-29" target="6kn5Lzyc4PaZcMPqqwd1-28">
          <mxGeometry relative="1" as="geometry">
            <Array as="points">
              <mxPoint x="905" y="30" />
              <mxPoint x="510" y="30" />
            </Array>
          </mxGeometry>
        </mxCell>
        <mxCell id="6kn5Lzyc4PaZcMPqqwd1-41" style="edgeStyle=orthogonalEdgeStyle;rounded=0;orthogonalLoop=1;jettySize=auto;html=1;entryX=0.644;entryY=-0.017;entryDx=0;entryDy=0;entryPerimeter=0;strokeWidth=2;" edge="1" parent="1" source="6kn5Lzyc4PaZcMPqqwd1-29" target="6kn5Lzyc4PaZcMPqqwd1-27">
          <mxGeometry relative="1" as="geometry">
            <Array as="points">
              <mxPoint x="905" y="30" />
              <mxPoint x="178" y="30" />
            </Array>
          </mxGeometry>
        </mxCell>
        <mxCell id="6kn5Lzyc4PaZcMPqqwd1-29" value="&lt;span style=&quot;font-size: 15px;&quot;&gt;热key的重构&lt;/span&gt;" style="text;strokeColor=none;align=center;fillColor=none;html=1;verticalAlign=middle;whiteSpace=wrap;rounded=0;" vertex="1" parent="1">
          <mxGeometry x="840" y="80" width="130" height="30" as="geometry" />
        </mxCell>
        <mxCell id="6kn5Lzyc4PaZcMPqqwd1-42" value="&lt;span style=&quot;font-size: 15px;&quot;&gt;&lt;font color=&quot;#ff0000&quot;&gt;&lt;b&gt;未命中&lt;/b&gt;&lt;/font&gt;&lt;/span&gt;" style="text;strokeColor=none;align=center;fillColor=none;html=1;verticalAlign=middle;whiteSpace=wrap;rounded=0;" vertex="1" parent="1">
          <mxGeometry x="290" y="330" width="90" height="30" as="geometry" />
        </mxCell>
        <mxCell id="6kn5Lzyc4PaZcMPqqwd1-43" value="&lt;span style=&quot;font-size: 15px;&quot;&gt;&lt;b&gt;&lt;font color=&quot;#ff0000&quot;&gt;过期&lt;/font&gt;&lt;/b&gt;&lt;/span&gt;" style="text;strokeColor=none;align=center;fillColor=none;html=1;verticalAlign=middle;whiteSpace=wrap;rounded=0;" vertex="1" parent="1">
          <mxGeometry x="520" y="690" width="90" height="30" as="geometry" />
        </mxCell>
        <mxCell id="6kn5Lzyc4PaZcMPqqwd1-45" value="&lt;span style=&quot;font-size: 15px;&quot;&gt;&lt;font color=&quot;#ff0000&quot;&gt;&lt;b&gt;未命中/过期&lt;/b&gt;&lt;/font&gt;&lt;/span&gt;" style="text;strokeColor=none;align=center;fillColor=none;html=1;verticalAlign=middle;whiteSpace=wrap;rounded=0;" vertex="1" parent="1">
          <mxGeometry x="660" y="330" width="90" height="30" as="geometry" />
        </mxCell>
        <mxCell id="6kn5Lzyc4PaZcMPqqwd1-46" value="&lt;font color=&quot;#ff0000&quot;&gt;&lt;span style=&quot;font-size: 15px;&quot;&gt;&lt;b&gt;回写缓存&lt;/b&gt;&lt;/span&gt;&lt;/font&gt;" style="text;strokeColor=none;align=center;fillColor=none;html=1;verticalAlign=middle;whiteSpace=wrap;rounded=0;" vertex="1" parent="1">
          <mxGeometry x="465" width="90" height="30" as="geometry" />
        </mxCell>
        <mxCell id="6kn5Lzyc4PaZcMPqqwd1-48" style="edgeStyle=orthogonalEdgeStyle;rounded=0;orthogonalLoop=1;jettySize=auto;html=1;strokeWidth=2;" edge="1" parent="1" source="6kn5Lzyc4PaZcMPqqwd1-47">
          <mxGeometry relative="1" as="geometry">
            <mxPoint x="50" y="355" as="targetPoint" />
          </mxGeometry>
        </mxCell>
        <mxCell id="6kn5Lzyc4PaZcMPqqwd1-47" value="" style="shape=actor;whiteSpace=wrap;html=1;strokeWidth=2;" vertex="1" parent="1">
          <mxGeometry x="-160" y="325" width="40" height="60" as="geometry" />
        </mxCell>
        <mxCell id="6kn5Lzyc4PaZcMPqqwd1-50" value="&lt;span style=&quot;font-size: 15px;&quot;&gt;&lt;font color=&quot;#ff0000&quot;&gt;&lt;b&gt;GetOrLoad&lt;/b&gt;&lt;/font&gt;&lt;/span&gt;" style="text;strokeColor=none;align=center;fillColor=none;html=1;verticalAlign=middle;whiteSpace=wrap;rounded=0;" vertex="1" parent="1">
          <mxGeometry x="-70" y="300" width="90" height="30" as="geometry" />
        </mxCell>
        <mxCell id="6kn5Lzyc4PaZcMPqqwd1-51" value="&lt;span style=&quot;font-size: 15px;&quot;&gt;&lt;font color=&quot;#ff0000&quot;&gt;&lt;b&gt;BatchGetOrLoad&lt;/b&gt;&lt;/font&gt;&lt;/span&gt;" style="text;strokeColor=none;align=center;fillColor=none;html=1;verticalAlign=middle;whiteSpace=wrap;rounded=0;" vertex="1" parent="1">
          <mxGeometry x="-70" y="360" width="90" height="30" as="geometry" />
        </mxCell>
        <mxCell id="6kn5Lzyc4PaZcMPqqwd1-52" value="&lt;span style=&quot;font-size: 15px;&quot;&gt;&lt;font color=&quot;#ff0000&quot;&gt;&lt;b&gt;GetOrAsyncLoad&lt;/b&gt;&lt;/font&gt;&lt;/span&gt;" style="text;strokeColor=none;align=center;fillColor=none;html=1;verticalAlign=middle;whiteSpace=wrap;rounded=0;" vertex="1" parent="1">
          <mxGeometry x="-70" y="320" width="90" height="30" as="geometry" />
        </mxCell>
        <mxCell id="6kn5Lzyc4PaZcMPqqwd1-53" value="&lt;span style=&quot;font-size: 15px;&quot;&gt;&lt;font color=&quot;#ff0000&quot;&gt;&lt;b&gt;BatchGetOrAsyncLoad&lt;/b&gt;&lt;/font&gt;&lt;/span&gt;" style="text;strokeColor=none;align=center;fillColor=none;html=1;verticalAlign=middle;whiteSpace=wrap;rounded=0;" vertex="1" parent="1">
          <mxGeometry x="-80" y="390" width="90" height="25" as="geometry" />
        </mxCell>
      </root>
    </mxGraphModel>
  </diagram>
</mxfile>
